<?xml version="1.0" standalone="no"?>
<!DOCTYPE svg PUBLIC "-//W3C//DTD SVG 20010904//EN"
 "http://www.w3.org/TR/2001/REC-SVG-20010904/DTD/svg10.dtd">
<svg version="1.0" xmlns="http://www.w3.org/2000/svg"
 width="1024.000000pt" height="1024.000000pt" viewBox="0 0 1024.000000 1024.000000"
 preserveAspectRatio="xMidYMid meet">

<g transform="translate(0.000000,1024.000000) scale(0.100000,-0.100000)"
fill="#000000" stroke="none">
<path d="M6165 6031 c-22 -10 -50 -29 -61 -42 -12 -13 -94 -148 -183 -299
-374 -633 -426 -720 -433 -718 -5 2 -88 123 -186 271 l-179 267 -30 -47 c-16
-27 -92 -145 -168 -263 -75 -118 -139 -219 -141 -225 -3 -6 42 -88 100 -183
l104 -172 62 105 c34 58 65 107 69 109 3 2 58 -82 121 -187 63 -105 126 -204
140 -220 32 -39 77 -57 142 -57 67 0 114 24 151 75 16 22 238 392 492 823
l463 782 -211 0 c-185 0 -217 -3 -252 -19z"/>
<path d="M5466 5447 c3 -10 9 -15 12 -12 3 3 0 11 -7 18 -10 9 -11 8 -5 -6z"/>
<path d="M4688 4373 c7 -3 16 -2 19 1 4 3 -2 6 -13 5 -11 0 -14 -3 -6 -6z"/>
<path d="M2829 3607 c-86 -57 -91 -181 -10 -250 45 -37 89 -43 145 -19 65 29
88 70 84 149 -3 49 -9 68 -28 89 -55 58 -132 71 -191 31z"/>
<path d="M6282 3610 c-70 -43 -93 -135 -51 -210 40 -71 118 -95 188 -58 137
73 89 288 -64 288 -22 0 -54 -9 -73 -20z"/>
<path d="M1150 3440 l0 -120 175 0 175 0 0 -520 0 -520 135 0 135 0 0 520 0
520 170 0 170 0 0 120 0 120 -480 0 -480 0 0 -120z"/>
<path d="M4153 3521 c7 -22 95 -310 197 -640 l185 -601 156 0 155 0 78 253
c44 138 106 335 139 437 l60 185 42 -125 c23 -69 84 -266 136 -437 l94 -313
157 0 156 0 11 33 c5 17 91 294 191 614 99 321 185 594 190 608 l10 25 -150 0
-149 0 -16 -52 c-8 -29 -56 -195 -106 -368 -50 -173 -100 -349 -113 -390 l-22
-75 -66 205 c-36 113 -100 312 -142 443 l-77 237 -147 0 -147 0 -94 -303 c-52
-166 -115 -365 -140 -442 l-44 -140 -19 65 c-11 36 -69 235 -130 443 l-111
377 -148 0 -148 0 12 -39z"/>
<path d="M2486 3220 c-57 -22 -91 -51 -117 -100 l-18 -35 -1 68 0 67 -125 0
-125 0 0 -470 0 -470 124 0 124 0 4 268 c4 292 7 306 68 376 41 47 104 70 175
64 l55 -5 0 119 c0 65 1 121 3 126 5 17 -119 11 -167 -8z"/>
<path d="M3633 3230 c-55 -11 -121 -45 -160 -83 l-33 -31 0 52 0 52 -125 0
-125 0 0 -650 0 -650 125 0 125 0 0 231 0 231 37 -32 c20 -18 62 -45 93 -59
49 -23 67 -26 165 -26 89 1 120 5 165 23 172 69 280 239 283 447 1 106 -14
176 -56 263 -86 178 -287 272 -494 232z m164 -241 c74 -36 133 -142 133 -239
0 -99 -63 -204 -145 -241 -54 -25 -157 -25 -211 0 -159 72 -190 342 -52 454
73 59 185 69 275 26z"/>
<path d="M6870 3225 c-30 -9 -74 -27 -97 -41 -130 -76 -172 -267 -88 -396 32
-49 117 -89 276 -131 145 -38 179 -56 179 -93 0 -61 -41 -84 -152 -84 -76 0
-152 22 -226 67 -26 15 -50 28 -55 28 -4 0 -32 -40 -62 -90 l-56 -90 23 -19
c44 -37 165 -87 249 -102 107 -21 241 -14 320 15 88 33 132 71 168 142 26 52
31 73 31 133 0 88 -22 139 -80 189 -50 43 -110 67 -257 104 -117 29 -155 53
-155 97 0 91 162 102 298 20 31 -19 58 -33 59 -32 2 2 28 45 59 96 l56 93 -48
30 c-73 46 -163 70 -282 75 -75 3 -121 0 -160 -11z"/>
<path d="M7857 3224 c-169 -41 -299 -159 -348 -315 -24 -76 -25 -220 -4 -304
54 -209 256 -346 508 -345 150 1 268 44 351 129 58 58 59 55 -46 132 l-69 52
-22 -21 c-118 -107 -347 -102 -431 11 -19 26 -46 87 -46 103 0 2 160 4 355 4
l355 0 0 88 c0 48 -7 115 -16 147 -63 242 -322 383 -587 319z m183 -195 c85
-19 134 -67 155 -151 l7 -28 -226 0 c-124 0 -226 2 -226 4 0 2 7 19 15 39 30
73 90 122 165 138 50 10 60 10 110 -2z"/>
<path d="M8982 3226 c-57 -18 -108 -59 -132 -104 l-19 -37 -1 68 0 67 -120 0
-120 0 0 -470 0 -470 130 0 130 0 0 273 c0 308 3 322 78 389 45 41 88 53 163
46 l50 -5 -3 126 -3 126 -55 2 c-30 1 -74 -4 -98 -11z"/>
<path d="M2780 2750 l0 -470 125 0 125 0 0 470 0 470 -125 0 -125 0 0 -470z"/>
<path d="M6220 2750 l0 -470 130 0 130 0 0 470 0 470 -130 0 -130 0 0 -470z"/>
</g>
</svg>
